<svg xmlns="http://www.w3.org/2000/svg" width="14" height="14" viewBox="0 0 14 14">
  <path id="print" d="M11.375,5.25V2.239a.656.656,0,0,0-.191-.465L9.6.191A.656.656,0,0,0,9.133,0H3.281a.655.655,0,0,0-.656.656V5.25A2.626,2.626,0,0,0,0,7.875v3.719a.655.655,0,0,0,.656.656H2.625v1.094A.655.655,0,0,0,3.281,14h7.438a.655.655,0,0,0,.656-.656V12.25h1.969A.655.655,0,0,0,14,11.594V7.875A2.626,2.626,0,0,0,11.375,5.25ZM3.938,1.313H8.862l1.2,1.2v4.05H3.938Zm6.125,11.375H3.938V10.5h6.125Zm2.625-1.75H11.375V9.844a.658.658,0,0,0-.656-.656H3.281a.658.658,0,0,0-.656.656v1.094H1.313V7.875A1.313,1.313,0,0,1,2.625,6.563v.656a.658.658,0,0,0,.656.656h7.438a.658.658,0,0,0,.656-.656V6.563a1.313,1.313,0,0,1,1.313,1.313Zm-.219-2.625a.656.656,0,1,1-.656-.656A.655.655,0,0,1,12.469,8.313Z" fill="#8a8f9c"/>
</svg>
