<svg xmlns="http://www.w3.org/2000/svg" width="16" height="14" viewBox="0 0 16 14">
  <path id="browser" d="M14.5,32H1.5A1.5,1.5,0,0,0,0,33.5v11A1.5,1.5,0,0,0,1.5,46h13A1.5,1.5,0,0,0,16,44.5v-11A1.5,1.5,0,0,0,14.5,32Zm-13,1.875a.376.376,0,0,1,.375-.375h1.25a.376.376,0,0,1,.375.375v.75A.376.376,0,0,1,3.125,35H1.875a.376.376,0,0,1-.375-.375Zm13,10.437a.188.188,0,0,1-.187.188H1.688a.188.188,0,0,1-.187-.187V36.25h13Zm0-9.687a.376.376,0,0,1-.375.375H5.375A.376.376,0,0,1,5,34.625v-.75a.376.376,0,0,1,.375-.375h8.75a.376.376,0,0,1,.375.375Z" transform="translate(0 -32)" fill="#8a8f9c"/>
</svg>
