<svg xmlns="http://www.w3.org/2000/svg" width="18.667" height="14" viewBox="0 0 18.667 14">
  <path id="chart-bar" d="M18.229,76.25a.439.439,0,0,1,.438.438v.875a.439.439,0,0,1-.437.438H.438A.439.439,0,0,1,0,77.563V64.438A.439.439,0,0,1,.438,64h.875a.439.439,0,0,1,.438.438V76.25ZM5.25,74.063V71.438A.439.439,0,0,0,4.813,71H3.937a.439.439,0,0,0-.437.438v2.625a.439.439,0,0,0,.437.438h.875A.439.439,0,0,0,5.25,74.063Zm3.5,0V66.771a.439.439,0,0,0-.437-.437H7.437A.439.439,0,0,0,7,66.771v7.292a.439.439,0,0,0,.437.438h.875A.439.439,0,0,0,8.75,74.063Zm3.5,0V69.1a.439.439,0,0,0-.437-.437h-.875a.439.439,0,0,0-.437.437v4.958a.439.439,0,0,0,.438.438h.875A.439.439,0,0,0,12.25,74.063Zm3.5,0V65.6a.439.439,0,0,0-.437-.437h-.875A.439.439,0,0,0,14,65.6v8.458a.439.439,0,0,0,.437.438h.875A.439.439,0,0,0,15.75,74.063Z" transform="translate(0 -64)" fill="#8a8f9c"/>
</svg>
