<svg xmlns="http://www.w3.org/2000/svg" width="16" height="16.509" viewBox="0 0 16 16.509">
  <path id="cog" d="M30.181,15.621l1.06-.612a.8.8,0,0,0,.372-.9,8.24,8.24,0,0,0-2.132-3.688.8.8,0,0,0-.965-.127l-1.058.611a6.533,6.533,0,0,0-1.095-.633V9.049a.8.8,0,0,0-.594-.772,8.308,8.308,0,0,0-4.258,0,.8.8,0,0,0-.594.772v1.223a6.533,6.533,0,0,0-1.095.633l-1.058-.611a.8.8,0,0,0-.965.127,8.24,8.24,0,0,0-2.132,3.688.8.8,0,0,0,.372.9l1.06.612a6.581,6.581,0,0,0,0,1.265l-1.06.612a.8.8,0,0,0-.372.9A8.24,8.24,0,0,0,17.8,22.086a.8.8,0,0,0,.965.127l1.058-.611a6.531,6.531,0,0,0,1.095.633v1.223a.8.8,0,0,0,.594.772,8.307,8.307,0,0,0,4.258,0,.8.8,0,0,0,.594-.772V22.235a6.535,6.535,0,0,0,1.095-.633l1.058.611a.8.8,0,0,0,.965-.127A8.24,8.24,0,0,0,31.612,18.4a.8.8,0,0,0-.372-.9l-1.06-.612A6.581,6.581,0,0,0,30.181,15.621Zm-1.753,2.1,1.458.842a6.661,6.661,0,0,1-1.127,1.948L27.3,19.666a5.67,5.67,0,0,1-2.535,1.465v1.684a6.687,6.687,0,0,1-2.251,0V21.132a5.671,5.671,0,0,1-2.535-1.465l-1.459.842a6.662,6.662,0,0,1-1.127-1.948l1.458-.842a5.729,5.729,0,0,1,0-2.93l-1.458-.842A6.663,6.663,0,0,1,18.521,12l1.459.842a5.67,5.67,0,0,1,2.535-1.465V9.692a6.687,6.687,0,0,1,2.251,0v1.684A5.671,5.671,0,0,1,27.3,12.841L28.759,12a6.661,6.661,0,0,1,1.127,1.948l-1.458.842a5.728,5.728,0,0,1,0,2.93Zm-4.787-4.66a3.2,3.2,0,1,0,3.2,3.2A3.2,3.2,0,0,0,23.64,13.059Zm0,4.793a1.6,1.6,0,1,1,1.6-1.6A1.6,1.6,0,0,1,23.64,17.851Z" transform="translate(-15.64 -7.999)" fill="#8a8f9c"/>
</svg>
