<svg xmlns="http://www.w3.org/2000/svg" width="14" height="14" viewBox="0 0 14 14">
  <path id="external-link-square" d="M12.5,32H1.5A1.5,1.5,0,0,0,0,33.5v11A1.5,1.5,0,0,0,1.5,46h11A1.5,1.5,0,0,0,14,44.5v-11A1.5,1.5,0,0,0,12.5,32Zm-.187,12.5H1.688a.187.187,0,0,1-.187-.187V33.688a.187.187,0,0,1,.187-.187H12.313a.187.187,0,0,1,.188.188V44.313a.187.187,0,0,1-.187.188ZM10.625,35l-4.25,0A.375.375,0,0,0,6,35.38v.867a.375.375,0,0,0,.383.375L8.2,36.555,3.11,41.64a.375.375,0,0,0,0,.53l.72.72a.375.375,0,0,0,.53,0L9.445,37.8l-.067,1.813A.375.375,0,0,0,9.753,40h.867A.375.375,0,0,0,11,39.625l0-4.25A.375.375,0,0,0,10.625,35Z" transform="translate(0 -32)" fill="#8a8f9c"/>
</svg>
