<svg xmlns="http://www.w3.org/2000/svg" width="16" height="16" viewBox="0 0 16 16">
  <path id="life-ring" d="M16,24a8,8,0,1,0-8-8A8,8,0,0,0,16,24Zm-3.335-2.475L14.388,19.8a4.14,4.14,0,0,0,3.225,0l1.723,1.723a6.464,6.464,0,0,1-6.671,0ZM18.581,16A2.581,2.581,0,1,1,16,13.419,2.584,2.584,0,0,1,18.581,16Zm2.945,3.335L19.8,17.612a4.14,4.14,0,0,0,0-3.225l1.723-1.723A6.464,6.464,0,0,1,21.525,19.335Zm-2.19-8.861L17.612,12.2a4.14,4.14,0,0,0-3.225,0l-1.723-1.723A6.464,6.464,0,0,1,19.335,10.475Zm-8.861,2.19L12.2,14.388a4.14,4.14,0,0,0,0,3.225l-1.723,1.723A6.464,6.464,0,0,1,10.475,12.665Z" transform="translate(-8 -8)" fill="#8a8f9c"/>
</svg>
